<svg width="110" height="27" viewBox="0 0 110 27" fill="none" xmlns="http://www.w3.org/2000/svg">
<rect width="109.021" height="26.9956" rx="13.4978" fill="white"/>
<path d="M21.8836 15.7694C22.6764 16.751 22.625 18.1702 21.7851 19.0713C21.3134 19.5775 20.6627 19.8452 20.0008 19.8573C19.1566 19.8727 18.4259 19.2926 18.1803 18.4847C17.4391 16.047 15.5554 14.1365 13.1837 13.3603C11.9707 13 10.8804 12.2598 10.0886 11.2845C8.99912 10.1258 9.15937 8.34311 10.2232 7.49629C10.7703 7.06096 11.5128 6.90752 12.2307 7.05382C12.9189 7.19412 13.4684 7.71801 13.6551 8.39501C14.3707 10.9892 16.3751 12.9884 18.893 13.7471L18.8922 13.7497C20.0796 14.1226 21.1151 14.8328 21.8834 15.7694H21.8836Z" fill="#2B747F"/>
<path d="M20.833 12.6685C18.2464 12.5073 16.0211 10.7502 15.2353 8.32526C15.0415 7.72725 15.5112 7.1221 16.1384 7.16119C18.6839 7.31949 20.9392 9.03941 21.7378 11.502C21.9325 12.1021 21.4626 12.7078 20.8328 12.6685H20.833Z" fill="#2B747F"/>
<path d="M11.0322 14.2491C13.6187 14.4103 15.844 16.1674 16.6298 18.5924C16.8237 19.1904 16.3539 19.7955 15.7267 19.7565C13.1813 19.5982 10.9259 17.8782 10.1273 15.4156C9.93265 14.8155 10.4025 14.2099 11.0323 14.2491H11.0322Z" fill="#2B747F"/>
<path d="M92.9271 10H94.1404V14.9409C94.1404 15.2661 94.193 15.5721 94.2982 15.859C94.4034 16.1421 94.5539 16.3908 94.7498 16.6051C94.9457 16.8193 95.1814 16.9895 95.4571 17.1158C95.7364 17.2382 96.0465 17.2994 96.3875 17.2994C96.7321 17.2994 97.0422 17.2382 97.3179 17.1158C97.5935 16.9895 97.8275 16.8193 98.0197 16.6051C98.2156 16.3908 98.3643 16.1421 98.4659 15.859C98.5711 15.5721 98.6237 15.2661 98.6237 14.9409V10H99.1569V14.9409C99.1569 15.3311 99.097 15.6984 98.9773 16.0427C98.8576 16.387 98.669 16.6892 98.4115 16.9494C98.1576 17.2057 97.8311 17.4104 97.4321 17.5634C97.0331 17.7126 96.5543 17.7872 95.9958 17.7872C95.4988 17.7872 95.0581 17.7126 94.6736 17.5634C94.2928 17.4104 93.9718 17.2038 93.7106 16.9436C93.4531 16.6835 93.2572 16.3793 93.123 16.0312C92.9924 15.6792 92.9271 15.3043 92.9271 14.9064V10Z" fill="black"/>
<path d="M84.6208 10H87.6954C88.1022 10 88.4746 10.0438 88.8123 10.1315C89.154 10.2156 89.4457 10.3362 89.6875 10.4933C89.9332 10.6504 90.1232 10.8386 90.2575 11.0579C90.3918 11.2771 90.459 11.5183 90.459 11.7814C90.459 11.9824 90.4379 12.1614 90.3957 12.3185C90.3535 12.4757 90.2786 12.6218 90.1711 12.757C90.0637 12.8886 89.9197 13.0146 89.7393 13.1352C89.5628 13.2522 89.3382 13.3728 89.0657 13.497V13.5189C89.3382 13.5591 89.5839 13.6285 89.8027 13.7272C90.0214 13.8259 90.2076 13.9519 90.3611 14.1054C90.5185 14.2552 90.6394 14.4324 90.7239 14.6371C90.8083 14.8381 90.8505 15.0591 90.8505 15.3003C90.8505 15.5744 90.7872 15.832 90.6605 16.0731C90.5377 16.3107 90.3592 16.5189 90.1251 16.698C89.8948 16.8734 89.6146 17.0123 89.2845 17.1146C88.9582 17.2169 88.5916 17.268 88.1848 17.268H84.6208V10ZM85.9047 13.2723H87.5399C87.7971 13.2723 88.0255 13.2375 88.2251 13.1681C88.4247 13.0987 88.5936 13.0037 88.7317 12.8831C88.8699 12.7589 88.9736 12.6127 89.0426 12.4446C89.1156 12.2729 89.152 12.0883 89.152 11.891C89.152 11.6791 89.1098 11.4872 89.0254 11.3155C88.9409 11.1401 88.8085 10.9903 88.6281 10.866C88.4515 10.7418 88.2251 10.6468 87.9487 10.581C87.6762 10.5152 87.348 10.4823 86.9641 10.4823H85.9047V13.2723ZM85.9047 16.7364H87.2923C87.6647 16.7364 87.9871 16.7035 88.2596 16.6377C88.536 16.5683 88.7624 16.4733 88.939 16.3527C89.1194 16.2284 89.2518 16.0805 89.3363 15.9087C89.4246 15.737 89.4687 15.5488 89.4687 15.3441C89.4687 15.1139 89.4303 14.9002 89.3536 14.7029C89.2768 14.5055 89.1501 14.3356 88.9736 14.1931C88.8008 14.0469 88.5724 13.9318 88.2884 13.8478C88.0082 13.7637 87.6627 13.7217 87.252 13.7217H85.9047V16.7364Z" fill="black"/>
<path d="M80.4677 10H82.0251V17.268H80.4677V10Z" fill="black"/>
<path d="M73.7188 10H75.0181V16.7967H78.9102V17.268H73.7188V10Z" fill="black"/>
<path d="M68.7229 10L72.1613 17.268H70.9105L69.7974 14.899H66.662L65.5104 17.268H64.8932L68.4143 10H68.7229ZM66.8769 14.438H69.5715L68.2435 11.6241L66.8769 14.438Z" fill="black"/>
<path d="M55.0295 10H56.2251L58.9309 15.5744H58.9886L61.642 10H62.8167V17.268H61.642V11.31H61.6053L58.7526 17.268H58.5114L55.6273 11.3593H55.5486V17.268H55.0295V10Z" fill="black"/>
<path d="M44.1274 10H45.3372V13.2229L49.124 10H49.9106L46.3192 13.0585L50.8763 17.268H49.3356L45.3372 13.5792V17.268H44.1274V10Z" fill="#2B747F"/>
<path d="M39.0046 17.3156C39.1841 17.3156 39.3617 17.2913 39.5375 17.2426C39.7133 17.1902 39.8708 17.1153 40.0099 17.018C40.1491 16.917 40.2608 16.7953 40.3451 16.6531C40.4293 16.5071 40.4714 16.3387 40.4714 16.1478C40.4714 15.9195 40.4128 15.7173 40.2956 15.5414C40.1821 15.3618 40.0319 15.1989 39.8451 15.053C39.6583 14.9033 39.4441 14.7629 39.2024 14.6319C38.9643 14.5009 38.7208 14.3699 38.4717 14.2389C38.2227 14.1079 37.9773 13.9713 37.7356 13.829C37.4975 13.6831 37.2851 13.5221 37.0983 13.3462C36.9115 13.1665 36.7596 12.9682 36.6424 12.7511C36.5288 12.5302 36.4721 12.2776 36.4721 11.9931C36.4721 11.7087 36.5233 11.4448 36.6259 11.2015C36.7321 10.9582 36.8859 10.7486 37.0873 10.5727C37.2888 10.393 37.536 10.2526 37.829 10.1516C38.1256 10.0505 38.4644 10 38.8453 10C39.1896 10 39.4972 10.0374 39.7682 10.1123C40.0392 10.1871 40.2773 10.2976 40.4824 10.4435C40.6875 10.5895 40.8614 10.7692 41.0043 10.9825C41.1471 11.1959 41.2625 11.4429 41.3504 11.7236L40.7241 12.0156C40.6509 11.7873 40.5575 11.5795 40.4439 11.3924C40.3304 11.2015 40.1949 11.0387 40.0374 10.9039C39.8799 10.7692 39.6968 10.6662 39.488 10.5951C39.283 10.5203 39.0504 10.4828 38.7904 10.4828C38.5596 10.4828 38.3582 10.5165 38.1861 10.5839C38.0139 10.6475 37.8693 10.7336 37.7521 10.8422C37.6385 10.947 37.5525 11.0667 37.4939 11.2015C37.4389 11.3325 37.4115 11.4672 37.4115 11.6057C37.4115 11.8004 37.4701 11.98 37.5873 12.1447C37.7045 12.3057 37.8601 12.4591 38.0542 12.6051C38.2483 12.7473 38.4681 12.8858 38.7134 13.0206C38.9625 13.1553 39.2152 13.2919 39.4716 13.4304C39.7279 13.5689 39.9788 13.713 40.2242 13.8627C40.4732 14.0124 40.6948 14.1771 40.8889 14.3568C41.083 14.5327 41.2387 14.7273 41.3559 14.9407C41.4731 15.1503 41.5317 15.3861 41.5317 15.6481C41.5317 15.9438 41.4767 16.2226 41.3669 16.4846C41.257 16.7429 41.0922 16.9694 40.8724 17.164C40.6527 17.3549 40.3798 17.5065 40.0539 17.6188C39.7279 17.731 39.3489 17.7872 38.9167 17.7872C38.5651 17.7872 38.252 17.7479 37.9773 17.6693C37.7026 17.5907 37.4591 17.4765 37.2467 17.3268C37.0379 17.1771 36.8584 16.9956 36.7083 16.7822C36.5581 16.5651 36.4354 16.3181 36.3402 16.0411L36.9939 15.766C37.0709 16.0093 37.1734 16.2264 37.3016 16.4173C37.4334 16.6082 37.5854 16.771 37.7576 16.9057C37.9297 17.0367 38.1201 17.1378 38.3289 17.2089C38.5413 17.28 38.7666 17.3156 39.0046 17.3156Z" fill="#2B747F"/>
<path d="M31.3444 10L34.7828 17.268H33.532L32.4189 14.899H29.2835L28.1319 17.268H27.5147L31.0358 10H31.3444ZM29.4984 14.438H32.193L30.865 11.6241L29.4984 14.438Z" fill="#2B747F"/>
</svg>
