<svg width="171" height="45" viewBox="0 0 171 45" fill="none" xmlns="http://www.w3.org/2000/svg">
<rect width="170.366" height="44.8364" rx="22.4182" fill="white"/>
<path d="M34.1971 26.191C35.4361 27.8213 35.3557 30.1785 34.0433 31.6752C33.3062 32.5159 32.2893 32.9604 31.255 32.9806C29.9357 33.0062 28.7939 32.0426 28.4101 30.7008C27.2518 26.6522 24.3081 23.4791 20.602 22.1898C18.7064 21.5915 17.0026 20.362 15.7652 18.7422C14.0627 16.8177 14.3131 13.8569 15.9756 12.4504C16.8305 11.7274 17.9909 11.4726 19.1127 11.7155C20.1881 11.9486 21.0468 12.8187 21.3386 13.9431C22.4568 18.2517 25.5891 21.5721 29.5238 22.8323L29.5226 22.8366C31.3782 23.4559 32.9962 24.6356 34.1969 26.191H34.1971Z" fill="#2B747F"/>
<path d="M32.5555 21.0409C28.5136 20.7731 25.0361 17.8549 23.8081 13.8273C23.5052 12.834 24.2392 11.829 25.2193 11.8939C29.1971 12.1568 32.7215 15.0134 33.9696 19.1035C34.2737 20.1002 33.5394 21.1061 32.5552 21.0409H32.5555Z" fill="#2B747F"/>
<path d="M17.2398 23.6661C21.2817 23.9339 24.7592 26.8521 25.9872 30.8797C26.2901 31.8729 25.5561 32.878 24.576 32.8131C20.5982 32.5502 17.0738 29.6936 15.8257 25.6035C15.5216 24.6068 16.2559 23.6009 17.2401 23.6661H17.2398Z" fill="#2B747F"/>
<path d="M145.217 16.6088H147.113V24.815C147.113 25.3551 147.195 25.8634 147.359 26.34C147.524 26.8102 147.759 27.2232 148.065 27.579C148.371 27.9348 148.739 28.2176 149.17 28.4273C149.607 28.6306 150.091 28.7322 150.624 28.7322C151.163 28.7322 151.647 28.6306 152.078 28.4273C152.509 28.2176 152.874 27.9348 153.175 27.579C153.481 27.2232 153.713 26.8102 153.872 26.34C154.036 25.8634 154.119 25.3551 154.119 24.815V16.6088H154.952V24.815C154.952 25.4631 154.858 26.0731 154.671 26.645C154.484 27.2168 154.189 27.7188 153.787 28.1509C153.39 28.5766 152.88 28.9165 152.256 29.1707C151.633 29.4185 150.885 29.5424 150.012 29.5424C149.235 29.5424 148.547 29.4185 147.946 29.1707C147.351 28.9165 146.849 28.5734 146.441 28.1413C146.038 27.7092 145.732 27.2041 145.523 26.6259C145.319 26.0413 145.217 25.4186 145.217 24.7578V16.6088Z" fill="black"/>
<path d="M132.236 16.6088H137.041C137.677 16.6088 138.259 16.6816 138.786 16.8273C139.32 16.9669 139.776 17.1671 140.154 17.4281C140.538 17.6891 140.835 18.0016 141.045 18.3658C141.255 18.7299 141.36 19.1305 141.36 19.5675C141.36 19.9013 141.327 20.1986 141.261 20.4596C141.195 20.7206 141.078 20.9633 140.91 21.1879C140.742 21.4064 140.517 21.6158 140.235 21.816C139.959 22.0103 139.608 22.2105 139.182 22.4169V22.4533C139.608 22.5201 139.992 22.6354 140.334 22.7992C140.676 22.9631 140.967 23.1725 141.207 23.4274C141.453 23.6762 141.642 23.9706 141.774 24.3104C141.906 24.6442 141.972 25.0114 141.972 25.412C141.972 25.8671 141.873 26.295 141.675 26.6956C141.483 27.09 141.204 27.436 140.838 27.7334C140.478 28.0247 140.04 28.2553 139.524 28.4252C139.014 28.5952 138.442 28.6801 137.806 28.6801H132.236V16.6088ZM134.243 22.0436H136.798C137.2 22.0436 137.557 21.986 137.869 21.8707C138.181 21.7554 138.445 21.5976 138.66 21.3973C138.876 21.1909 139.038 20.9482 139.146 20.669C139.26 20.3837 139.317 20.0773 139.317 19.7495C139.317 19.3975 139.251 19.0789 139.119 18.7937C138.987 18.5023 138.78 18.2535 138.499 18.0472C138.223 17.8408 137.869 17.683 137.437 17.5738C137.011 17.4645 136.498 17.4099 135.898 17.4099H134.243V22.0436ZM134.243 27.7971H136.411C136.993 27.7971 137.497 27.7425 137.923 27.6332C138.355 27.5179 138.708 27.3601 138.984 27.1598C139.266 26.9535 139.473 26.7077 139.605 26.4225C139.743 26.1372 139.812 25.8246 139.812 25.4848C139.812 25.1024 139.752 24.7474 139.632 24.4197C139.512 24.0919 139.314 23.8097 139.038 23.573C138.768 23.3303 138.412 23.1391 137.968 22.9995C137.53 22.8599 136.99 22.7901 136.348 22.7901H134.243V27.7971Z" fill="black"/>
<path d="M125.746 16.6088H128.18V28.6801H125.746V16.6088Z" fill="black"/>
<path d="M115.2 16.6088H117.23V27.8972H123.312V28.6801H115.2V16.6088Z" fill="black"/>
<path d="M107.393 16.6088L112.766 28.6801H110.811L109.072 24.7454H104.172L102.373 28.6801H101.408L106.911 16.6088H107.393ZM104.508 23.9798H108.719L106.644 19.3062L104.508 23.9798Z" fill="black"/>
<path d="M85.9943 16.6088H87.8626L92.091 25.8671H92.1812L96.3277 16.6088H98.1632V28.6801H96.3277V18.7846H96.2703L91.8124 28.6801H91.4355L86.9284 18.8665H86.8055V28.6801H85.9943V16.6088Z" fill="black"/>
<path d="M68.9576 16.6088H70.8482V21.9617L76.7657 16.6088H77.995L72.3827 21.6886L79.5041 28.6801H77.0964L70.8482 22.5534V28.6801H68.9576V16.6088Z" fill="#2B747F"/>
<path d="M60.9522 28.7591C61.2326 28.7591 61.5102 28.7187 61.7849 28.6379C62.0597 28.5508 62.3058 28.4265 62.5232 28.2649C62.7407 28.097 62.9153 27.895 63.0469 27.6588C63.1785 27.4163 63.2444 27.1366 63.2444 26.8195C63.2444 26.4403 63.1528 26.1046 62.9696 25.8124C62.7922 25.514 62.5576 25.2436 62.2657 25.0012C61.9738 24.7525 61.639 24.5194 61.2613 24.3018C60.8893 24.0842 60.5087 23.8666 60.1195 23.6491C59.7303 23.4315 59.3469 23.2046 58.9691 22.9684C58.5971 22.7259 58.2652 22.4586 57.9733 22.1664C57.6814 21.868 57.4439 21.5385 57.2607 21.178C57.0833 20.8112 56.9946 20.3916 56.9946 19.9191C56.9946 19.4467 57.0747 19.0084 57.235 18.6043C57.401 18.2002 57.6413 17.8521 57.9561 17.5599C58.2709 17.2615 58.6572 17.0284 59.1151 16.8606C59.5786 16.6927 60.108 16.6088 60.7033 16.6088C61.2412 16.6088 61.722 16.671 62.1455 16.7953C62.569 16.9196 62.941 17.103 63.2615 17.3455C63.582 17.5879 63.8539 17.8863 64.0771 18.2406C64.3003 18.595 64.4806 19.0053 64.6179 19.4715L63.6393 19.9564C63.5248 19.5772 63.3789 19.2322 63.2014 18.9214C63.024 18.6043 62.8123 18.3339 62.5662 18.1101C62.3201 17.8863 62.0339 17.7153 61.7077 17.5972C61.3872 17.4729 61.0238 17.4107 60.6174 17.4107C60.2568 17.4107 59.9421 17.4667 59.6731 17.5786C59.4041 17.6843 59.178 17.8272 58.9949 18.0075C58.8175 18.1816 58.683 18.3805 58.5914 18.6043C58.5055 18.8219 58.4626 19.0457 58.4626 19.2757C58.4626 19.599 58.5542 19.8974 58.7373 20.1709C58.9205 20.4382 59.1637 20.6931 59.467 20.9355C59.7704 21.1718 60.1138 21.4018 60.4972 21.6256C60.8864 21.8494 61.2813 22.0763 61.6819 22.3063C62.0825 22.5363 62.4746 22.7756 62.858 23.0243C63.2472 23.273 63.5935 23.5465 63.8968 23.8449C64.2001 24.1371 64.4434 24.4603 64.6265 24.8147C64.8097 25.1628 64.9012 25.5544 64.9012 25.9896C64.9012 26.4807 64.8154 26.9439 64.6437 27.379C64.472 27.808 64.2144 28.1841 63.871 28.5073C63.5277 28.8244 63.1013 29.0761 62.5919 29.2626C62.0825 29.4491 61.4902 29.5424 60.8149 29.5424C60.2654 29.5424 59.7761 29.4771 59.3469 29.3466C58.9176 29.216 58.537 29.0264 58.2051 28.7777C57.8788 28.5291 57.5984 28.2276 57.3638 27.8732C57.1291 27.5127 56.9374 27.1024 56.7886 26.6423L57.8102 26.1854C57.9304 26.5895 58.0906 26.9501 58.2909 27.2671C58.497 27.5842 58.7345 27.8546 59.0035 28.0784C59.2724 28.296 59.5701 28.4638 59.8963 28.5819C60.2282 28.7 60.5802 28.7591 60.9522 28.7591Z" fill="#2B747F"/>
<path d="M48.9816 16.6088L54.3548 28.6801H52.4001L50.6607 24.7454H45.7612L43.9615 28.6801H42.9971L48.4994 16.6088H48.9816ZM46.097 23.9798H50.3077L48.2325 19.3062L46.097 23.9798Z" fill="#2B747F"/>
</svg>
